# xmcd
#
# Track frame offsets:
#	150
#	13653
#	27260
#	41932
#	57037
#	73507
#	95489
#	109441
#	124929
#	138011
#	153636
#	167625
#	180633
#	193250
#	208401
#	232655
#
# Disc length: 3117 seconds
#
# Revision: 0
# Processed by: cddbd v1.5.2PL0 Copyright (c) Steve Scherf et al.
# Submitted via: EasyCDDAExtractor 10.0.3.1
#
DISCID=e30c2b10
DTITLE=Various Artist - Chartbuster 90154
DYEAR=1900
DGENRE=Country
TTITLE0=Merle Haggard - The Fightin' Side Of Me
TTITLE1=Merle Haggard - The Bottle Let Me Down
TTITLE2=Merle Haggard - Farmer's Daughter
TTITLE3=Merle Haggard - Lonesome Fugitive
TTITLE4=Merle Haggard - Daddy Frank
TTITLE5=Merle Haggard - I Think I'll Just Stay Here And Drink
TTITLE6=Merle Haggard - Swinging Doors
TTITLE7=Merle Haggard - It's All In The Movies
TTITLE8=Merle Haggard - Let's Chase Each Other Around The Room
TTITLE9=Merle Haggard - It's Not Love But It's Not Bad
TTITLE10=Merle Haggard - Everybody's Had The Blues
TTITLE11=Merle Haggard - Sing Me Back Home
TTITLE12=Merle Haggard - Things Aren't Funny Anymore
TTITLE13=Merle Haggard - If We're Not Back In Love By Monday
TTITLE14=Merle Haggard - A Better Love Next Time
TTITLE15=Ending
EXTD=
EXTT0=
EXTT1=
EXTT2=
EXTT3=
EXTT4=
EXTT5=
EXTT6=
EXTT7=
EXTT8=
EXTT9=
EXTT10=
EXTT11=
EXTT12=
EXTT13=
EXTT14=
EXTT15=
PLAYORDER=
